# xmcd
#
# Track frame offsets:
# 150
# 17662
# 33659
# 52953
# 81515
# 98250
# 113197
# 143681
# 166855
# 184095
# 201535
# 222219
# 239952
# 254321
# 262588
# 278667
# 300834
# 314309
#
# Disc length: 4435 seconds
#
# Revision: 0
# Processed by: cddbd v1.4PL0 Copyright (c) Steve Scherf et al.
# Submitted via: Audion 3.0.2 (http://www.panic.com/audion/)
#
DISCID=f1115112
DTITLE=KIROF - THE ONE (VOL. 03)
DYEAR=1900
DGENRE=
TTITLE0=ZHANE - GROOVE THANG
TTITLE1=KOOL and THE GANG - STRAIGHT AHEAD
TTITLE2=BONEY M - RIVERS OF BABYLON
TTITLE3=BOBBY BROWN - HUMPIN' AROUND
TTITLE4=SWV - RIGHT HERE
TTITLE5=SANTA ESMERALDA - DON'T LET ME BE MISUNDERSTOOD
TTITLE6=BOBBY BROWN - DON'T BE CRUEL
TTITLE7=SHALAMAR - NIGHT A REMEMBER
TTITLE8=EVELYN THOMAS - HIGH ENERGY
TTITLE9=THE WHISPERS - AND THE BEAT GOES ON
TTITLE10=MARK MORRISON - RETURN OF THE MACK
TTITLE11=BOBBY BROWN - EVERY LITTLE STEP
TTITLE12=CARL DOUGLAS - KUNG FU FIGHTING
TTITLE13=THE COASTERS - YAKETY YAK
TTITLE14=EARTH WIND and FIRE - SEPTEMBER
TTITLE15=MIDNIGHT STAR - MIDAS TOUCH
TTITLE16=THE JACKSON 5 - I WANT YOU BACK
TTITLE17=CHAKA DEMUS and PLIERS - SHE DON'T LET NOBODY
EXTD=
EXTT0=
EXTT1=
EXTT2=
EXTT3=
EXTT4=
EXTT5=
EXTT6=
EXTT7=
EXTT8=
EXTT9=
EXTT10=
EXTT11=
EXTT12=
EXTT13=
EXTT14=
EXTT15=
EXTT16=
EXTT17=
PLAYORDER=
